<?xml version="1.0" encoding="UTF-8" standalone="no"?>
<!-- Created with Inkscape (http://www.inkscape.org/) -->

<svg
   xmlns:dc="http://purl.org/dc/elements/1.1/"
   xmlns:cc="http://creativecommons.org/ns#"
   xmlns:rdf="http://www.w3.org/1999/02/22-rdf-syntax-ns#"
   xmlns:svg="http://www.w3.org/2000/svg"
   xmlns="http://www.w3.org/2000/svg"
   xmlns:sodipodi="http://sodipodi.sourceforge.net/DTD/sodipodi-0.dtd"
   xmlns:inkscape="http://www.inkscape.org/namespaces/inkscape"
   id="svg3081"
   version="1.1"
   inkscape:version="0.48.4 r9939"
   width="857.32568"
   height="1000.1913"
   sodipodi:docname="Benzene-2D-flat.png">
  <metadata
     id="metadata3087">
    <rdf:RDF>
      <cc:Work
         rdf:about="">
        <dc:format>image/svg+xml</dc:format>
        <dc:type
           rdf:resource="http://purl.org/dc/dcmitype/StillImage" />
        <dc:title></dc:title>
      </cc:Work>
    </rdf:RDF>
  </metadata>
  <defs
     id="defs3085" />
  <sodipodi:namedview
     pagecolor="#ffffff"
     bordercolor="#666666"
     borderopacity="1"
     objecttolerance="10"
     gridtolerance="10"
     guidetolerance="10"
     inkscape:pageopacity="0"
     inkscape:pageshadow="2"
     inkscape:window-width="1855"
     inkscape:window-height="1056"
     id="namedview3083"
     showgrid="false"
     fit-margin-top="0"
     fit-margin-left="0"
     fit-margin-right="0"
     fit-margin-bottom="0"
     inkscape:zoom="0.42909091"
     inkscape:cx="941.30176"
     inkscape:cy="327.48032"
     inkscape:window-x="65"
     inkscape:window-y="24"
     inkscape:window-maximized="1"
     inkscape:current-layer="svg3081" />
  <path
     style="fill:#171717"
     d="m 390.0668,949.89339 0.2593,-50.2979 6,0 6,0 0.2708,19.6448 c 0.2072,15.0356 0.5883,19.9083 1.6242,20.768 0.94,0.7801 8.8,1.0414 25.7292,0.8552 l 24.3758,-0.268 0.2722,-19.4243 c 0.1774,-12.6639 0.6681,-19.9014 1.4099,-20.7952 0.777,-0.9362 2.91,-1.2772 6.7278,-1.0757 l 5.5901,0.2952 0,49.9999 0,49.99999 -6.5,0 -6.5,0 -0.5,-22.99999 -0.5,-23 -25.5,0 -25.5,0 -0.5,23 -0.5,22.99999 -6.2593,0.298 -6.2593,0.29792 0.2593,-50.29791 z m 34.2508,-66.0479 c -0.3006,-1.2375 -0.4217,-22.50005 -0.2691,-47.25005 l 0.2776,-45 4.5,0 4.5,0 0.2775,45 c 0.1526,24.75 0.032,46.01255 -0.2691,47.25005 -0.4525,1.8627 -1.2284,2.25 -4.5084,2.25 -3.2801,0 -4.056,-0.3873 -4.5085,-2.25 z m -9.4915,-108.63245 c -7.9545,-2.56692 -11.2069,-4.48234 -16.3589,-9.63432 -8.9317,-8.93173 -14.6064,-24.85406 -14.6064,-40.98328 0,-29.60588 16.4045,-48.9086 43.4653,-51.1445 18.1483,-1.49951 33.5229,6.74096 40.9528,21.95 3.3342,6.82498 2.946,7.61565 -4.5704,9.3085 -5.7715,1.29986 -5.7439,1.31711 -9.7165,-6.07459 -5.3925,-10.03397 -16.3158,-14.89111 -28.7748,-12.79496 -18.5254,3.11679 -27.4189,15.96656 -27.3764,39.55477 0.034,18.56665 5.7143,30.46318 17.3952,36.42873 6.1403,3.13585 18.0844,4.24515 24.2088,2.24838 8.4014,-2.73917 14.9171,-9.11974 18.357,-17.97633 2.2549,-5.80552 2.5235,-5.95107 8.2118,-4.45053 6.98,1.84129 7.3295,2.37779 5.3776,8.25443 -3.8249,11.51559 -14.06,21.66699 -25.4205,25.2126 -8.3034,2.59149 -23.2766,2.6401 -31.1446,0.1011 z M 0.28440675,774.84544 c -0.2634,-0.6875 -0.3618,-23.3 -0.2186,-50.25 l 0.2603,-49 5.90719995,-0.3046 c 4.0490003,-0.20877 6.1675003,0.1058 6.7347003,1 0.4551,0.71753 0.8343,9.9747 0.8428,20.57148 l 0.015,19.26688 25.75,-0.26688 25.749996,-0.26688 0.2707,-20.25 0.2707,-20.25 6.4885,0 6.4886,0 -0.2593,50.25 -0.2592,50.25 -6,0 -6,0 -0.26,-22.5 c -0.2279,-19.72404 -0.4673,-22.65422 -1.9411,-23.75 -1.2293,-0.91402 -7.7899,-1.25 -24.408296,-1.25 -12.4999,0 -23.4389,0.27314 -24.3089,0.60699 -1.3766,0.52826 -1.5817,3.48537 -1.5817,22.8 0,15.9279 -0.3388,22.53177 -1.2,23.39301 -1.621,1.62093 -11.71720025,1.58002 -12.34170025,-0.05 z M 779.5363,775.4724 c -0.3906,-0.39066 -0.7103,-23.13529 -0.7103,-50.54363 l 0,-49.83333 6.4793,0 6.4793,0 0.2707,20.25 0.2707,20.25 25.75,0.26688 25.75,0.26688 0.015,-19.26688 c 0.01,-10.59678 0.3877,-19.85395 0.8428,-20.57148 0.5671,-0.8942 2.6857,-1.20877 6.7347,-1 l 5.9072,0.3046 0,50 0,50 -5.3312,0.30507 c -3.071,0.17575 -5.9326,-0.19412 -6.75,-0.87244 -1.1473,-0.95224 -1.4188,-5.43828 -1.4188,-23.44809 0,-19.38535 -0.2049,-22.3492 -1.5818,-22.87755 -0.8699,-0.33385 -11.8089,-0.60699 -24.3088,-0.60699 -16.6184,0 -23.179,0.33598 -24.4083,1.25 -1.4738,1.09578 -1.7133,4.02596 -1.9411,23.75 l -0.26,22.5 -5.5397,0.29363 c -3.0468,0.1615 -5.8593,-0.026 -6.25,-0.41667 z M 350.1654,684.42288 c -12.0116,-6.89769 -30.0323,-17.24271 -40.046,-22.98893 -10.0136,-5.74622 -19.1819,-11.23747 -20.374,-12.20279 -2.0853,-1.68857 -2.105,-1.87606 -0.5177,-4.94541 0.9073,-1.75467 2.2821,-3.19031 3.055,-3.19031 1.3866,0 82.0293,46.08594 83.8784,47.93507 1.1743,1.17423 -0.9357,6.69773 -2.8373,7.42742 -0.7255,0.27841 -11.1468,-5.13737 -23.1584,-12.03505 z m 133.2612,8.57339 c -1.543,-2.61209 -1.6162,-3.30394 -0.4657,-4.40208 2.241,-2.13885 83.0409,-48.49875 84.5277,-48.49875 1.8261,0 5.0186,6.72123 3.7775,7.95256 -1.7991,1.7848 -83.3085,48.04744 -84.654,48.04744 -0.7452,0 -2.1786,-1.39463 -3.1855,-3.09917 z m -382.6491,-2.96898 c -1.646897,-2.31287 -2.006997,-3.62027 -1.303997,-4.73468 1.347197,-2.13574 76.509297,-45.27041 78.318197,-44.94592 1.9596,0.35151 4.5165,5.04996 3.7852,6.95557 -0.4965,1.29403 -72.1933,43.54039 -76.8875,45.30496 -1.1138,0.41866 -2.3636,-0.40565 -3.9119,-2.57993 z m 615.0486,-18.97464 c -25.4854,-14.89864 -37.5953,-22.51447 -37.7974,-23.77049 -0.1636,-1.01649 0.5821,-2.93431 1.6571,-4.26184 l 1.9545,-2.41367 4.3429,2.20111 c 10.8644,5.50645 71.2875,41.04548 72.1737,42.45041 0.7295,1.15652 0.4014,2.40453 -1.2371,4.70562 -1.2265,1.72241 -2.5368,3.10455 -2.9119,3.07142 -0.375,-0.0331 -17.5568,-9.92528 -38.1818,-21.98256 z m -335.1909,-7.47503 c -4.2299,-2.46493 -7.9741,-4.94001 -8.3203,-5.50018 -0.6157,-0.99626 3.108,-7.982 4.2548,-7.982 1.4186,0 16.4828,9.42644 16.931,10.59459 0.6006,1.56513 -2.6768,7.4129 -4.1402,7.38735 -0.569,-0.01 -4.4953,-2.03483 -8.7253,-4.49976 z m 86.7476,1.29531 c -2.8248,-4.03293 -1.9472,-5.48184 6.1933,-10.22538 4.2625,-2.48379 8.2607,-4.52411 8.885,-4.53405 1.3649,-0.0217 4.365,4.33586 4.365,6.34013 0,1.27086 -15.0351,10.64181 -17.0742,10.64181 -0.4468,0 -1.5129,-1.00013 -2.3691,-2.22251 z m -242.5527,-0.87691 c -19.5946,-3.83647 -31.6673,-18.73401 -35.1069,-43.32136 -2.9641,-21.18821 4.5929,-41.62596 18.9785,-51.32695 9.3745,-6.32174 17.8373,-8.56866 30.4214,-8.077 11.9365,0.46635 18.6706,2.98845 25.9877,9.73304 4.4021,4.0577 10.7153,14.37209 10.7153,17.50642 0,1.80631 -3.1013,3.25802 -8.9622,4.19522 -3.7665,0.60229 -3.8843,0.52598 -5.7832,-3.74757 -4.742,-10.67226 -12.875,-15.83623 -24.9671,-15.85261 -18.685,-0.0253 -29.718,10.55764 -32.4694,31.14489 -2.1771,16.2899 2.1246,32.94715 10.4513,40.46981 10.4097,9.40448 26.3569,10.80346 38.1192,3.34403 4.8139,-3.05288 10.3106,-10.45161 11.2896,-15.19607 0.9327,-4.52047 2.635,-5.24487 8.592,-3.65631 6.5533,1.74758 7.0003,3.59598 2.9444,12.17512 -8.6889,18.37858 -27.8202,26.99323 -50.2106,22.60934 z m 388.3847,-0.38897 c -20.4368,-4.44565 -32.8391,-21.90647 -34.1024,-48.01161 -1.3359,-27.60444 12.0836,-48.19663 34.8254,-53.43946 6.5943,-1.52022 19.8281,-1.26174 25.9568,0.507 6.3788,1.84093 14.8238,7.29029 18.2352,11.7668 2.7202,3.56939 7.6963,13.04612 7.6963,14.65717 0,1.28846 -3.1,2.52311 -8.69,3.46101 -4.161,0.69813 -4.2052,0.6732 -6.3823,-3.59408 -3.4722,-6.80612 -6.0985,-9.85986 -10.9277,-12.70617 -4.0603,-2.39308 -5.4773,-2.65219 -14.5,-2.6515 -8.9191,6.9e-4 -10.5502,0.29099 -15.0901,2.68578 -5.2955,2.79342 -10.2865,7.74033 -12.8913,12.77737 -2.5012,4.83688 -4.4881,15.04941 -4.5039,23.14959 -0.038,19.65184 6.0544,31.77819 18.9792,37.77531 7.4991,3.47964 19.3222,3.64335 26.0364,0.36052 6.3469,-3.10328 11.6507,-8.91302 14.4597,-15.83915 1.3183,-3.25061 2.9849,-6.01959 3.7035,-6.15329 2.9489,-0.54873 11.3107,2.40719 11.6395,4.11463 0.5481,2.84631 -6.2166,15.80782 -10.584,20.27922 -10.5246,10.77528 -26.2981,14.68119 -43.8603,10.86086 z M 346.3261,643.75419 c -7.7003,-4.65863 -8.8303,-6.83008 -5.5888,-10.73947 l 2.006,-2.41928 7.7854,4.16327 c 4.282,2.2898 8.2327,4.87248 8.7795,5.73928 1.2756,2.02221 -1.572,7.01454 -4.1606,7.29431 -1.0019,0.10827 -4.9715,-1.70888 -8.8215,-4.03811 z m 154.5048,0.34807 c -1.1722,-1.64624 -1.8777,-3.40359 -1.5676,-3.90521 1.0865,-1.75801 16.6002,-10.30121 17.8413,-9.82497 1.8091,0.6942 4.0829,5.33918 3.4372,7.02166 -0.6187,1.61249 -14.1558,9.7017 -16.2355,9.7017 -0.7392,0 -2.3031,-1.34693 -3.4754,-2.99318 z M 313.3289,624.2859 c -4.3984,-2.64155 -8.1339,-5.51319 -8.3011,-6.38143 -0.1672,-0.86823 0.7315,-2.75313 1.9971,-4.18865 l 2.3012,-2.61005 8,4.65128 c 4.4,2.5582 8.317,5.13683 8.7045,5.73029 0.7599,1.16376 -2.0855,6.73723 -3.7137,7.27446 -0.545,0.17981 -4.5895,-1.83435 -8.988,-4.4759 z m 222.1122,1.34472 c -2.9071,-4.43676 -2.0975,-5.74856 6.6435,-10.76458 l 8.2415,-4.7294 2.25,2.53516 c 3.8872,4.37991 3.0409,5.88774 -6.1015,10.87127 -4.5933,2.5038 -8.5915,4.55237 -8.885,4.55237 -0.2934,0 -1.2603,-1.10917 -2.1485,-2.46482 z M 230.0718,545.94116 c -0.9571,-0.95712 -1.2457,-11.5965 -1.2457,-45.92328 0,-49.19225 -0.2428,-47.35763 6.1846,-46.74067 l 3.3154,0.31823 0,46.5 0,46.5 -3.5043,0.29572 c -1.9274,0.16264 -4.0649,-0.26486 -4.75,-0.95 z m 33.2053,-0.11279 c -0.2919,-0.76063 -0.4003,-5.62421 -0.2409,-10.80795 l 0.2899,-9.42498 4.5,0 4.5,0 0,10.5 0,10.5 -4.2592,0.30794 c -2.928,0.2117 -4.425,-0.12428 -4.7898,-1.07501 z m 322,0 c -0.2919,-0.76063 -0.4003,-5.62421 -0.2409,-10.80795 l 0.2899,-9.42498 4.5,0 4.5,0 0,10.5 0,10.5 -4.2592,0.30794 c -2.928,0.2117 -4.425,-0.12428 -4.7898,-1.07501 z m 34.0069,0.0171 c -0.2636,-0.6875 -0.362,-21.725 -0.2186,-46.75 l 0.2607,-45.5 3.3153,-0.31823 c 6.4274,-0.61699 6.1847,-2.45161 6.1847,46.74064 0,33.41588 -0.3025,44.98004 -1.2,45.87756 -1.5819,1.58189 -7.7305,1.54504 -8.3421,-0.05 z m -356.0069,-36.0171 c -0.2919,-0.76063 -0.4003,-5.62421 -0.2409,-10.80795 l 0.2899,-9.42498 4.5,0 4.5,0 0,10.5 0,10.5 -4.2592,0.30794 c -2.928,0.2117 -4.425,-0.12428 -4.7898,-1.07501 z m 322,0 c -0.2919,-0.76063 -0.4003,-5.62421 -0.2409,-10.80795 l 0.2899,-9.42498 4.5,0 4.5,0 0,10.5 0,10.5 -4.2592,0.30794 c -2.928,0.2117 -4.425,-0.12428 -4.7898,-1.07501 z m -322,-36 c -0.2919,-0.76063 -0.4003,-5.62421 -0.2409,-10.80795 l 0.2899,-9.42498 4.5,0 4.5,0 0,10.5 0,10.5 -4.2592,0.30794 c -2.928,0.2117 -4.425,-0.12428 -4.7898,-1.07501 z m 322,0 c -0.2919,-0.76063 -0.4003,-5.62421 -0.2409,-10.80795 l 0.2899,-9.42498 4.5,0 4.5,0 0,10.5 0,10.5 -4.2592,0.30794 c -2.928,0.2117 -4.425,-0.12428 -4.7898,-1.07501 z m -360.447,-34.83235 c -19.5946,-3.83647 -31.6673,-18.73401 -35.1069,-43.32136 -2.9576,-21.14137 4.5285,-41.41174 18.9347,-51.27035 9.2599,-6.33692 17.8375,-8.62696 30.4652,-8.1336 11.9365,0.46635 18.6706,2.98845 25.9877,9.73304 4.4021,4.0577 10.7153,14.37209 10.7153,17.50642 0,1.80631 -3.1013,3.25802 -8.9622,4.19522 -3.7665,0.60229 -3.8843,0.52598 -5.7832,-3.74757 -4.5081,-10.14586 -11.4441,-14.89696 -22.834,-15.64102 -19.5573,-1.27761 -31.8114,9.67242 -34.6171,30.9333 -2.1532,16.31675 2.1501,32.95699 10.4659,40.46981 10.4097,9.40448 26.3569,10.80346 38.1192,3.34403 4.8139,-3.05288 10.3106,-10.45161 11.2896,-15.19607 0.9079,-4.40012 2.4531,-5.05104 8.4886,-3.57589 6.6746,1.63131 7.1335,3.45259 3.0478,12.0947 -8.7114,18.42625 -27.7621,27.0046 -50.2106,22.60934 z m 387.7561,-0.45842 c -15.2919,-3.70636 -24.5966,-12.89076 -30.2845,-29.89291 -5.3884,-16.10664 -4.3806,-34.51374 2.6597,-48.57987 5.8722,-11.73224 16.3187,-19.9907 28.9793,-22.90949 6.5917,-1.51965 19.8263,-1.26078 25.9539,0.50765 6.3788,1.84093 14.8238,7.29029 18.2352,11.7668 2.7202,3.56939 7.6963,13.04612 7.6963,14.65717 0,1.2887 -3.1002,2.52313 -8.6935,3.46159 l -4.1934,0.70359 -2.5117,-4.95655 c -2.828,-5.58084 -7.2909,-10.42502 -11.9576,-12.97934 -2.3816,-1.30361 -5.5682,-1.72061 -13.1438,-1.72003 -8.9191,6.9e-4 -10.5502,0.29099 -15.0901,2.68578 -8.5903,4.53147 -13.3168,11.07732 -15.8952,22.01387 -3.9933,16.9383 -0.254,36.90643 8.5622,45.72266 5.7405,5.74051 13.099,8.52598 22.4231,8.48799 9.2953,-0.0379 13.3905,-1.51052 19.4672,-7.00044 4.1161,-3.71862 9.0328,-11.83373 9.0328,-14.90877 0,-2.39888 2.2091,-2.73757 8.108,-1.24306 3.6354,0.92105 5.4977,1.93272 5.7244,3.10967 0.5486,2.84885 -6.2138,15.80862 -10.5834,20.28228 -10.5529,10.80431 -27.4877,14.91209 -44.4889,10.79141 z m -70.3361,-53.39322 c -9.354,-5.18811 -10.0851,-6.12134 -7.8109,-9.97119 0.9796,-1.65826 2.3013,-3.21467 2.9371,-3.45867 1.1059,-0.42434 14.3718,6.90296 16.6841,9.21527 1.2538,1.25377 -1.8978,8.17588 -3.7117,8.15243 -0.5625,-0.007 -4.2068,-1.7793 -8.0986,-3.93784 z m -235.8673,0.72855 c -2.7657,-3.94851 -1.9059,-5.41574 5.9787,-10.2026 4.1445,-2.51619 8.1428,-4.57489 8.885,-4.57489 1.5476,0 4.5796,4.22226 4.5796,6.3773 0,1.35654 -14.739,10.6227 -16.8967,10.6227 -0.5445,0 -1.6904,-1.00013 -2.5466,-2.22251 z m 201.5508,-20.741 c -9.2452,-5.63013 -9.4356,-5.89739 -6.9708,-9.78649 1.1328,-1.7875 2.6745,-3.25 3.426,-3.25 1.9219,0 16.4373,8.94075 16.4373,10.12455 0,2.29873 -3.1934,6.87254 -4.7757,6.84014 -0.9484,-0.0194 -4.601,-1.78711 -8.1168,-3.9282 z m -168.4122,-0.24602 c -0.8549,-1.76524 -1.3659,-3.51456 -1.1354,-3.88737 0.2304,-0.37281 4.1342,-2.78279 8.6751,-5.35552 l 8.2563,-4.6777 2.3055,2.68028 c 1.268,1.47414 2.166,3.41592 1.9955,4.31505 -0.3386,1.78558 -14.2679,10.13479 -16.9084,10.13479 -0.8988,0 -2.3336,-1.44429 -3.1886,-3.20953 z M 137.8261,337.53005 c -21.175,-12.32198 -38.649797,-23.1077 -38.832797,-23.96827 -0.4457,-2.09527 2.504997,-6.46634 4.365097,-6.46634 1.5299,0 75.9336,42.26018 78.276,44.4596 1.0716,1.00624 0.9181,1.88973 -0.8488,4.88442 -1.1864,2.01079 -2.6751,3.61958 -3.3083,3.57509 -0.6332,-0.0445 -18.4762,-10.16252 -39.6512,-22.4845 z m 409.5,11.44373 c -10.45,-6.09776 -27.55,-16.04475 -38,-22.10441 -29.7196,-17.23353 -28.5869,-16.23623 -24.2137,-21.32044 l 2.2864,-2.65804 40.9636,23.70154 c 22.53,13.03584 41.5879,24.29714 42.3508,25.0251 1.1797,1.12571 1.1036,1.80897 -0.5092,4.57047 -1.0429,1.78578 -2.3421,3.38768 -2.8871,3.55976 -0.545,0.17208 -9.5408,-4.67621 -19.9908,-10.77398 z m -258.2062,6.61165 c -1.0441,-2.18946 -1.3202,-3.86251 -0.7338,-4.44693 0.517,-0.51531 19.6038,-11.80083 42.4151,-25.07894 l 41.4751,-24.14201 2.2749,2.64471 c 1.2512,1.45459 2.2749,3.48623 2.2749,4.51475 0,1.41606 -10.2248,7.71436 -42.1183,25.94424 -23.1651,13.2408 -42.5223,24.07419 -43.0162,24.07419 -0.4938,0 -1.6511,-1.57951 -2.5717,-3.51001 z m 389.7261,0.53802 c -1.2137,-1.70445 -1.9935,-3.64553 -1.7329,-4.3135 0.4009,-1.02768 58.3014,-34.86251 73.0152,-42.66724 l 4.8021,-2.54727 1.9478,2.36078 c 1.0713,1.29844 1.9478,3.14003 1.9478,4.09243 0,1.22553 -10.9401,8.06305 -37.4311,23.39418 -20.5871,11.9144 -38.0861,21.91389 -38.8867,22.22108 -0.8927,0.34257 -2.3088,-0.63974 -3.6622,-2.54046 z m -204.7634,-10.7829 c -4.5473,-2.61752 -8.2441,-5.41767 -8.245,-6.24511 -9e-4,-0.825 1.0087,-2.74966 2.2434,-4.27702 l 2.2451,-2.77702 7.8025,4.58222 c 4.2914,2.52023 8.0365,5.19177 8.3224,5.93677 0.5564,1.44996 -2.1931,7.53831 -3.4006,7.53016 -0.3984,-0.003 -4.4339,-2.14019 -8.9678,-4.75 z m -99.7034,1.19559 c -0.9223,-1.40761 -1.5353,-3.29483 -1.3622,-4.19382 0.1732,-0.89899 3.9135,-3.80372 8.3119,-6.45495 l 7.9972,-4.82043 2.245,2.76425 c 3.6326,4.47272 2.9525,5.80708 -5.4741,10.73982 -4.251,2.48844 -8.2493,4.52443 -8.885,4.52443 -0.6358,0 -1.9105,-1.15168 -2.8328,-2.5593 z M 416.572,326.0587 c -19.5518,-4.86283 -32.6696,-25.31578 -32.7286,-51.0296 -0.056,-24.61738 11.0318,-42.23926 30.8765,-49.07008 22.0692,-7.59652 44.6345,0.76345 53.6819,19.88801 3.0818,6.51443 2.5452,7.50694 -4.8873,9.03985 -5.5033,1.13502 -5.4256,1.18709 -9.7828,-6.55573 -5.6221,-9.99051 -15.9961,-14.51061 -28.5346,-12.43292 -19.6178,3.25079 -28.4899,17.48556 -27.1132,43.50173 1.1903,22.49205 11.1804,34.35919 29.8688,35.48055 14.2677,0.8561 24.8455,-5.51291 29.5378,-17.78507 l 2.1029,-5.5 4.4986,0.15181 c 6.4831,0.21879 9.0699,1.83813 8.2755,5.18036 -2.4603,10.35126 -11.9079,21.79208 -22.0414,26.69175 -5.4684,2.64403 -7.0633,2.92198 -18,3.13705 -6.6,0.12979 -13.6894,-0.18418 -15.7541,-0.69771 z M 0.28440675,324.84544 c -0.2634,-0.6875 -0.3618,-23.3 -0.2186,-50.25 l 0.2603,-49 5.90719995,-0.3046 c 4.0490003,-0.20877 6.1675003,0.1058 6.7347003,1 0.4551,0.71753 0.8343,9.9747 0.8428,20.57148 l 0.015,19.26688 25.75,-0.26688 25.749996,-0.26688 0.2707,-20.25 0.2707,-20.25 6.4885,0 6.4886,0 -0.2593,50.25 -0.2592,50.25 -6,0 -6,0 -0.5,-23 -0.5,-23 -25.749996,-0.26688 -25.75,-0.26688 0,22.31688 c 0,16.02424 -0.3384,22.65524 -1.2,23.51688 -1.621,1.62093 -11.71720025,1.58002 -12.34170025,-0.05 z M 779.5363,325.4724 c -0.3906,-0.39066 -0.7103,-23.13529 -0.7103,-50.54363 l 0,-49.83333 6.4793,0 6.4793,0 0.2707,20.25 0.2707,20.25 25.75,0.26688 25.75,0.26688 0.015,-19.26688 c 0.01,-10.59678 0.3877,-19.85395 0.8428,-20.57148 0.5671,-0.8942 2.6857,-1.20877 6.7347,-1 l 5.9072,0.3046 0,50 0,50 -5.3312,0.30507 c -3.071,0.17575 -5.9326,-0.19412 -6.75,-0.87244 -1.1478,-0.9526 -1.4188,-5.45519 -1.4188,-23.57196 l 0,-22.39443 -25.75,0.26688 -25.75,0.26688 -0.5,23 -0.5,23 -5.5397,0.29363 c -3.0468,0.1615 -5.8593,-0.026 -6.25,-0.41667 z M 424.3062,207.90338 c -0.2758,-0.71936 -0.3842,-21.78294 -0.2408,-46.80794 l 0.2607,-45.5 4.5,0 4.5,0 0,46.5 0,46.5 -4.2592,0.30794 c -2.8218,0.20403 -4.4284,-0.13344 -4.7607,-1 z M 390.5364,100.4724 c -0.3907,-0.39066 -0.7103,-23.15677 -0.7103,-50.59135 l 0,-49.88105 6.25,0.29772 6.25,0.29772 0.5,20 0.5,20 25.7292,0.26684 25.7292,0.26684 0.2708,-20.26684 0.2708,-20.26684 6.5,0 6.5,0 0,50 0,50 -5.3312,0.30507 c -3.0711,0.17575 -5.9327,-0.19412 -6.75,-0.87244 -1.1478,-0.9526 -1.4188,-5.45519 -1.4188,-23.57196 l 0,-22.39443 -25.75,0.26688 -25.75,0.26688 -0.5,23 -0.5,23 -5.5397,0.29363 c -3.0469,0.1615 -5.8594,-0.026 -6.25,-0.41667 z"
     id="path3091"
     inkscape:connector-curvature="0" />
</svg>
