<?xml version="1.0" encoding="UTF-8" standalone="no"?>
<!-- Created with Inkscape (http://www.inkscape.org/) -->

<svg
   xmlns:dc="http://purl.org/dc/elements/1.1/"
   xmlns:cc="http://creativecommons.org/ns#"
   xmlns:rdf="http://www.w3.org/1999/02/22-rdf-syntax-ns#"
   xmlns:svg="http://www.w3.org/2000/svg"
   xmlns="http://www.w3.org/2000/svg"
   xmlns:sodipodi="http://sodipodi.sourceforge.net/DTD/sodipodi-0.dtd"
   xmlns:inkscape="http://www.inkscape.org/namespaces/inkscape"
   id="svg3081"
   version="1.1"
   inkscape:version="0.48.4 r9939"
   width="279.35968"
   height="325.91232"
   sodipodi:docname="benzene.svg">
  <metadata
     id="metadata3087">
    <rdf:RDF>
      <cc:Work
         rdf:about="">
        <dc:format>image/svg+xml</dc:format>
        <dc:type
           rdf:resource="http://purl.org/dc/dcmitype/StillImage" />
        <dc:title />
      </cc:Work>
    </rdf:RDF>
  </metadata>
  <defs
     id="defs3085" />
  <sodipodi:namedview
     pagecolor="#ffffff"
     bordercolor="#666666"
     borderopacity="1"
     objecttolerance="10"
     gridtolerance="10"
     guidetolerance="10"
     inkscape:pageopacity="0"
     inkscape:pageshadow="2"
     inkscape:window-width="1855"
     inkscape:window-height="1056"
     id="namedview3083"
     showgrid="false"
     fit-margin-top="0"
     fit-margin-left="0"
     fit-margin-right="0"
     fit-margin-bottom="0"
     inkscape:zoom="0.42909091"
     inkscape:cx="941.30176"
     inkscape:cy="327.4803"
     inkscape:window-x="65"
     inkscape:window-y="24"
     inkscape:window-maximized="1"
     inkscape:current-layer="svg3081" />
  <path
     style="fill:#171717"
     d="m 127.10328,309.52278 0.0845,-16.38957 1.9551,0 1.9551,0 0.0882,6.40126 c 0.0675,4.89935 0.1917,6.48712 0.52924,6.76725 0.3063,0.2542 2.86749,0.33934 8.38387,0.27867 l 7.94285,-0.0873 0.0887,-6.3294 c 0.0578,-4.12654 0.2177,-6.48488 0.45941,-6.77612 0.25319,-0.30506 0.94823,-0.41618 2.19226,-0.35052 l 1.82153,0.0962 0,16.29247 0,16.2925 -2.11802,0 -2.11803,0 -0.16292,-7.49455 -0.16293,-7.49455 -8.30918,0 -8.30917,0 -0.16293,7.49455 -0.16292,7.49455 -2.03959,0.0971 -2.0396,0.097 0.0845,-16.38966 z m 11.16062,-21.5217 c -0.0979,-0.40324 -0.13741,-7.33165 -0.0877,-15.39643 l 0.0905,-14.66326 1.46632,0 1.46633,0 0.0904,14.66326 c 0.0497,8.06478 0.0104,14.99319 -0.0877,15.39643 -0.14745,0.60696 -0.40028,0.73316 -1.46907,0.73316 -1.06882,0 -1.32164,-0.1262 -1.46909,-0.73316 z m -3.09281,-35.39789 c -2.59197,-0.83643 -3.65176,-1.46057 -5.33054,-3.13934 -2.9104,-2.91041 -4.7595,-8.0987 -4.7595,-13.35441 0,-9.64707 5.34541,-15.93687 14.16317,-16.66543 5.91362,-0.48862 10.92344,2.19654 13.34447,7.1524 1.08645,2.22392 0.95995,2.48156 -1.48926,3.03318 -1.88065,0.42356 -1.87165,0.42918 -3.16613,-1.97941 -1.75714,-3.26957 -5.3165,-4.85226 -9.37627,-4.16923 -6.0365,1.0156 -8.93444,5.2027 -8.9206,12.88892 0.0111,6.04994 1.86201,9.92643 5.66823,11.8703 2.00082,1.02182 5.8928,1.38328 7.88844,0.73264 2.73759,-0.89256 4.86074,-2.97167 5.98163,-5.85759 0.73476,-1.89173 0.82228,-1.93916 2.67581,-1.45021 2.27444,0.59999 2.38832,0.77481 1.75229,2.68971 -1.24634,3.75235 -4.58145,7.06019 -8.28327,8.21553 -2.70566,0.84443 -7.58468,0.86027 -10.14847,0.0329 z M 0.09267395,252.48341 c -0.0858289,-0.22403 -0.11789254,-7.59231 -0.07123082,-16.37397 l 0.08481876,-15.96665 1.92486121,-0.0992 c 1.3193669,-0.068 2.0096802,0.0345 2.1945023,0.32585 0.1482943,0.2338 0.2718567,3.25025 0.2746264,6.70321 l 0.00489,6.27812 8.3906382,-0.087 8.390636,-0.087 0.08821,-6.59846 0.08821,-6.59846 2.114278,0 2.11431,0 -0.08449,16.37396 -0.08446,16.37396 -1.9551,0 -1.955101,0 -0.08472,-7.33162 c -0.07426,-6.42708 -0.152269,-7.38188 -0.632507,-7.73894 -0.400567,-0.29783 -2.538339,-0.40731 -7.953444,-0.40731 -4.0730923,0 -7.6375657,0.089 -7.9210552,0.19779 -0.4485651,0.17213 -0.515397,1.1357 -0.515397,7.42938 0,5.1901 -0.110398,7.34197 -0.39102,7.62261 -0.5282029,0.52818 -3.81804997,0.51485 -4.02154331,-0.0163 z M 254.01192,252.6877 c -0.12728,-0.1273 -0.23145,-7.53863 -0.23145,-16.46964 l 0,-16.23819 2.11128,0 2.11128,0 0.0882,6.59846 0.0882,6.59846 8.39063,0.087 8.39064,0.087 0.005,-6.27812 c 0.003,-3.45296 0.12633,-6.46941 0.27463,-6.70321 0.18479,-0.29138 0.87513,-0.39388 2.1945,-0.32585 l 1.92486,0.0992 0,16.2925 0,16.2925 -1.73717,0.0994 c -1.00069,0.0573 -1.93314,-0.0632 -2.19949,-0.28428 -0.37385,-0.31029 -0.46232,-1.77207 -0.46232,-7.64056 0,-6.31672 -0.0668,-7.28249 -0.51543,-7.45465 -0.28345,-0.10879 -3.84793,-0.19779 -7.92102,-0.19779 -5.4151,0 -7.55288,0.10948 -7.95344,0.40731 -0.48024,0.35706 -0.55828,1.31186 -0.63251,7.73894 l -0.0847,7.33162 -1.80511,0.0957 c -0.9928,0.0526 -1.90926,-0.008 -2.03657,-0.13577 z M 114.1014,223.01921 c -3.91398,-2.24761 -9.78602,-5.61853 -13.04899,-7.49094 -3.262928,-1.87241 -6.250419,-3.66173 -6.638865,-3.97628 -0.679495,-0.55022 -0.685914,-0.61131 -0.168692,-1.61146 0.295644,-0.57176 0.743622,-1.03956 0.995472,-1.03956 0.451823,0 26.729245,15.0171 27.331775,15.61964 0.38265,0.38262 -0.30489,2.18245 -0.92453,2.42022 -0.23641,0.0907 -3.63219,-1.67401 -7.54617,-3.92162 z m 43.42317,2.79364 c -0.50279,-0.85115 -0.52664,-1.07659 -0.15175,-1.43442 0.73023,-0.69694 27.05888,-15.80331 27.54335,-15.80331 0.59504,0 1.63531,2.19011 1.2309,2.59134 -0.58623,0.58157 -27.14607,15.65626 -27.58451,15.65626 -0.24282,0 -0.70989,-0.45444 -1.03799,-1.00987 z M 32.838351,224.84541 c -0.536642,-0.75365 -0.65398,-1.17967 -0.424908,-1.5428 0.438984,-0.69593 24.930557,-14.75136 25.519987,-14.64562 0.638535,0.11453 1.471701,1.64552 1.233407,2.26647 -0.161784,0.42166 -23.524188,14.18764 -25.053794,14.76262 -0.362931,0.13642 -0.770179,-0.13218 -1.274692,-0.84067 z m 200.413599,-6.18289 c -8.30442,-4.85472 -12.25043,-7.33634 -12.31628,-7.74561 -0.0533,-0.33122 0.18968,-0.95615 0.53996,-1.38872 l 0.63688,-0.7865 1.41513,0.71724 c 3.54017,1.79427 23.22904,13.37467 23.5178,13.83246 0.23771,0.37685 0.1308,0.78352 -0.40311,1.53333 -0.39965,0.56125 -0.82661,1.01162 -0.94884,1.00082 -0.12219,-0.0108 -5.72088,-3.23415 -12.44154,-7.16302 z m -109.22196,-2.43574 c -1.37831,-0.80319 -2.59836,-1.6097 -2.71117,-1.79223 -0.20063,-0.32463 1.01274,-2.60093 1.38643,-2.60093 0.46225,0 5.37092,3.0716 5.51696,3.45224 0.19571,0.51 -0.87223,2.4155 -1.34908,2.40717 -0.18541,-0.003 -1.4648,-0.66305 -2.84314,-1.46625 z m 28.26671,0.42208 c -0.92046,-1.31413 -0.6345,-1.78626 2.01808,-3.33194 1.38894,-0.80934 2.69175,-1.47418 2.89518,-1.47742 0.44475,-0.007 1.42234,1.41284 1.42234,2.06593 0,0.41411 -4.89919,3.46764 -5.56363,3.46764 -0.14559,0 -0.49298,-0.3259 -0.77197,-0.72421 z m -79.035807,-0.28574 c -6.3849,-1.25011 -10.31879,-6.10448 -11.439584,-14.11627 -0.965852,-6.90417 1.496597,-13.56382 6.184145,-16.72488 3.054681,-2.05994 5.812284,-2.7921 9.912814,-2.63189 3.889509,0.15196 6.083815,0.97378 8.468092,3.17151 1.434425,1.3222 3.491581,4.68314 3.491581,5.70446 0,0.58859 -1.010558,1.06163 -2.920333,1.36702 -1.227314,0.19625 -1.265699,0.17139 -1.884456,-1.22115 -1.545181,-3.47756 -4.195319,-5.16024 -8.13553,-5.16557 -6.088508,-0.008 -9.683611,3.4402 -10.580155,10.14856 -0.709408,5.30806 0.692301,10.73583 3.405557,13.18709 3.392001,3.06445 8.588396,3.52031 12.421142,1.08965 1.568609,-0.99478 3.359709,-3.40566 3.678716,-4.95164 0.303921,-1.47299 0.858615,-1.70904 2.799704,-1.19141 2.135393,0.56945 2.281048,1.17175 0.959433,3.96727 -2.831279,5.98866 -9.065213,8.79574 -16.361126,7.36725 z m 126.555167,-0.12675 c -6.65933,-1.44861 -10.70062,-7.13822 -11.11227,-15.64458 -0.4353,-8.99491 3.93744,-15.70487 11.34786,-17.41325 2.14875,-0.49536 6.46098,-0.41114 8.45802,0.16521 2.07853,0.59986 4.83034,2.37554 5.94194,3.83421 0.88638,1.16308 2.50784,4.25108 2.50784,4.77604 0,0.41984 -1.01013,0.82215 -2.83164,1.12777 -1.35586,0.22748 -1.37026,0.21936 -2.07967,-1.17113 -1.13142,-2.21778 -1.9872,-3.21284 -3.56079,-4.14031 -1.32305,-0.77978 -1.78478,-0.86421 -4.72483,-0.86399 -2.90628,2.2e-4 -3.43778,0.0948 -4.91711,0.87516 -1.72553,0.91024 -3.35185,2.52219 -4.20063,4.16351 -0.81501,1.5761 -1.46244,4.90385 -1.46759,7.54329 -0.0124,6.40355 1.97283,10.35493 6.18437,12.30909 2.44358,1.13384 6.29614,1.18718 8.48396,0.11747 2.06814,-1.0112 3.79638,-2.9043 4.7117,-5.16118 0.42956,-1.05922 0.97263,-1.96149 1.20678,-2.00505 0.9609,-0.17881 3.68559,0.78438 3.79273,1.34075 0.1786,0.92747 -2.02568,5.15098 -3.44879,6.60798 -3.42944,3.51113 -8.56924,4.78387 -14.29188,3.53901 z m -86.96569,-6.46905 c -2.50915,-1.51802 -2.87736,-2.22558 -1.82111,-3.49946 l 0.65365,-0.78832 2.53688,1.3566 c 1.39528,0.74613 2.68262,1.5877 2.8608,1.87015 0.41565,0.65893 -0.51224,2.28568 -1.35574,2.37685 -0.32647,0.0353 -1.61996,-0.55684 -2.87448,-1.31582 z m 50.34539,0.11342 c -0.38196,-0.53643 -0.61185,-1.10906 -0.5108,-1.27251 0.35403,-0.57285 5.40917,-3.35665 5.81359,-3.20147 0.58949,0.2262 1.33041,1.73977 1.12001,2.28801 -0.20161,0.52543 -4.61267,3.1613 -5.29034,3.1613 -0.24087,0 -0.75047,-0.4389 -1.13246,-0.97533 z m -61.09753,-6.45716 c -1.43322,-0.86075 -2.650432,-1.79648 -2.704914,-2.07939 -0.05448,-0.28292 0.238359,-0.89711 0.650754,-1.36487 l 0.74985,-0.85049 2.6068,1.51562 c 1.43374,0.83359 2.71009,1.67384 2.83636,1.86722 0.24761,0.37921 -0.67956,2.19532 -1.21011,2.37038 -0.17759,0.0586 -1.49549,-0.59772 -2.92874,-1.45847 z m 72.37527,0.43817 c -0.94728,-1.44571 -0.68348,-1.87316 2.16478,-3.50764 l 2.68549,-1.54107 0.73317,0.82608 c 1.26664,1.4272 0.99087,1.91852 -1.98818,3.54241 -1.49673,0.81586 -2.79954,1.48339 -2.89518,1.48339 -0.0956,0 -0.41066,-0.36143 -0.70008,-0.80317 z M 74.968901,177.89494 c -0.311871,-0.31188 -0.405911,-3.77872 -0.405911,-14.9641 0,-16.0293 -0.07912,-15.43149 2.015252,-15.23045 l 1.080323,0.1037 0,15.15202 0,15.15203 -1.141876,0.0964 c -0.628043,0.053 -1.324548,-0.0863 -1.547788,-0.30956 z m 10.819948,-0.0368 c -0.09511,-0.24785 -0.130438,-1.83265 -0.0785,-3.52177 l 0.09446,-3.07113 1.466325,0 1.466325,0 0,3.42142 0,3.42143 -1.38786,0.10034 c -0.954089,0.069 -1.441887,-0.0405 -1.560757,-0.35029 z m 104.923711,0 c -0.0951,-0.24785 -0.13044,-1.83265 -0.0785,-3.52177 l 0.0945,-3.07113 1.46633,0 1.46632,0 0,3.42142 0,3.42143 -1.38786,0.10034 c -0.95409,0.069 -1.44188,-0.0405 -1.56075,-0.35029 z m 11.08115,0.006 c -0.0859,-0.22402 -0.11796,-7.07909 -0.0712,-15.23349 l 0.0849,-14.82617 1.08029,-0.1037 c 2.09437,-0.20105 2.01529,-0.79886 2.01529,15.23044 0,10.88856 -0.0986,14.65675 -0.39102,14.9492 -0.51546,0.51546 -2.51898,0.50345 -2.71827,-0.0163 z M 85.788849,166.12759 c -0.09511,-0.24785 -0.130438,-1.83265 -0.0785,-3.52177 l 0.09446,-3.07113 1.466325,0 1.466325,0 0,3.42142 0,3.42143 -1.38786,0.10034 c -0.954089,0.069 -1.441887,-0.0405 -1.560757,-0.35029 z m 104.923711,0 c -0.0951,-0.24785 -0.13044,-1.83265 -0.0785,-3.52177 l 0.0945,-3.07113 1.46633,0 1.46632,0 0,3.42142 0,3.42143 -1.38786,0.10034 c -0.95409,0.069 -1.44188,-0.0405 -1.56075,-0.35029 z M 85.788849,154.39699 c -0.09511,-0.24785 -0.130438,-1.83265 -0.0785,-3.52177 l 0.09446,-3.07113 1.466325,0 1.466325,0 0,3.42142 0,3.42143 -1.38786,0.10034 c -0.954089,0.069 -1.441887,-0.0405 -1.560757,-0.35029 z m 104.923711,0 c -0.0951,-0.24785 -0.13044,-1.83265 -0.0785,-3.52177 l 0.0945,-3.07113 1.46633,0 1.46632,0 0,3.42142 0,3.42143 -1.38786,0.10034 c -0.95409,0.069 -1.44188,-0.0405 -1.56075,-0.35029 z M 73.260893,143.04686 c -6.3849,-1.25011 -10.31879,-6.10447 -11.439584,-14.11626 -0.963734,-6.88892 1.475612,-13.49402 6.169873,-16.70645 3.017338,-2.06488 5.812349,-2.81109 9.927086,-2.65033 3.889509,0.15196 6.083815,0.97379 8.468092,3.17151 1.434425,1.3222 3.491581,4.68315 3.491581,5.70447 0,0.58858 -1.010558,1.06162 -2.920333,1.36701 -1.227314,0.19626 -1.265699,0.17139 -1.884456,-1.22114 -1.468964,-3.30603 -3.72906,-4.85418 -7.440459,-5.09663 -6.372747,-0.41631 -10.365746,3.15176 -11.279983,10.07962 -0.70162,5.31681 0.70061,10.73903 3.410314,13.18708 3.392001,3.06445 8.588396,3.52031 12.421142,1.08966 1.568609,-0.99478 3.359709,-3.40566 3.678716,-4.95164 0.29584,-1.43378 0.799343,-1.64589 2.766011,-1.16521 2.174918,0.53156 2.324451,1.12503 0.993126,3.94106 -2.83861,6.00419 -9.046281,8.79945 -16.361126,7.36725 z m 126.350337,-0.14937 c -4.98287,-1.20772 -8.0148,-4.20046 -9.86821,-9.74061 -1.75581,-5.24835 -1.42742,-11.2463 0.86667,-15.82975 1.91345,-3.82295 5.31744,-6.51397 9.4429,-7.46506 2.14791,-0.49517 6.4604,-0.41082 8.45708,0.16542 2.07853,0.59987 4.83034,2.37554 5.94194,3.83421 0.88638,1.16309 2.50784,4.25108 2.50784,4.77604 0,0.41993 -1.0102,0.82216 -2.83278,1.12796 l -1.36642,0.22927 -0.81843,-1.6151 c -0.92151,-1.81851 -2.37574,-3.39699 -3.89639,-4.22931 -0.77604,-0.42478 -1.8144,-0.56066 -4.28291,-0.56048 -2.90628,2.3e-4 -3.43778,0.0948 -4.91711,0.87517 -2.79914,1.47658 -4.33927,3.60954 -5.17945,7.17322 -1.30121,5.51934 -0.0828,12.02596 2.79,14.89873 1.87054,1.87054 4.26831,2.77819 7.30656,2.76581 3.02888,-0.0123 4.3633,-0.49221 6.34339,-2.2811 1.34123,-1.21171 2.94334,-3.85602 2.94334,-4.85802 0,-0.78167 0.71984,-0.89204 2.64199,-0.40505 1.1846,0.30012 1.79143,0.62978 1.8653,1.01329 0.17876,0.92829 -2.02477,5.15124 -3.4486,6.60898 -3.43867,3.52058 -8.95687,4.8591 -14.49671,3.51638 z m -22.91902,-17.39818 c -3.048,-1.69055 -3.28623,-1.99464 -2.54518,-3.24912 0.3192,-0.54034 0.74987,-1.0475 0.95705,-1.127 0.36036,-0.13827 4.68305,2.24933 5.43651,3.00279 0.40856,0.40854 -0.61839,2.66411 -1.20945,2.65647 -0.18329,-0.002 -1.37079,-0.57978 -2.63893,-1.28314 z m -76.857367,0.23739 c -0.901204,-1.28662 -0.621038,-1.76471 1.948157,-3.32451 1.35049,-0.8199 2.65333,-1.49073 2.89518,-1.49073 0.50429,0 1.49226,1.37582 1.49226,2.07804 0,0.44203 -4.8027,3.46141 -5.50579,3.46141 -0.17742,0 -0.55081,-0.32589 -0.829807,-0.72421 z m 65.675337,-6.75845 c -3.01255,-1.83458 -3.07459,-1.92167 -2.27144,-3.18893 0.36912,-0.58246 0.87149,-1.05901 1.11636,-1.05901 0.62625,0 5.3561,2.91334 5.3561,3.29908 0,0.74904 -1.04057,2.23942 -1.55617,2.22886 -0.30903,-0.006 -1.49923,-0.58233 -2.64485,-1.28 z m -54.87712,-0.0802 c -0.27857,-0.5752 -0.44508,-1.14522 -0.36997,-1.2667 0.0751,-0.12148 1.34713,-0.90677 2.82678,-1.74509 l 2.69031,-1.52423 0.75125,0.87337 c 0.41318,0.48035 0.70579,1.11308 0.65023,1.40606 -0.11033,0.58183 -4.64919,3.30242 -5.5096,3.30242 -0.29287,0 -0.7604,-0.47062 -1.039,-1.04583 z m -65.722422,-8.9139 c -6.899874,-4.01512 -12.594037,-7.52965 -12.653668,-7.81007 -0.145231,-0.68274 0.816253,-2.10705 1.422367,-2.10705 0.498518,0 24.742965,13.77048 25.506237,14.48716 0.34918,0.32788 0.299162,0.61577 -0.276582,1.59159 -0.386588,0.65521 -0.871681,1.17944 -1.07801,1.16494 -0.206328,-0.0145 -6.02047,-3.31146 -12.920344,-7.32657 z m 133.435582,3.72894 c -3.40513,-1.98696 -8.97717,-5.22819 -12.3823,-7.20273 -9.68413,-5.61554 -9.31504,-5.29057 -7.89003,-6.94726 l 0.74502,-0.86613 13.34799,7.72315 c 7.3414,4.24773 13.55142,7.91723 13.80001,8.15443 0.3844,0.36681 0.35961,0.58945 -0.16592,1.48929 -0.33983,0.5819 -0.76318,1.10388 -0.94076,1.15995 -0.17759,0.0561 -3.10887,-1.52375 -6.51401,-3.5107 z m -84.136494,2.1544 c -0.34022,-0.71343 -0.430187,-1.2586 -0.239109,-1.44903 0.168465,-0.16791 6.387903,-3.8453 13.820963,-8.17197 l 13.51466,-7.86668 0.74128,0.86178 c 0.4077,0.47398 0.74127,1.13599 0.74127,1.47113 0,0.46143 -3.33175,2.51373 -13.72425,8.45393 -7.54834,4.31452 -13.855888,7.84458 -14.016825,7.84458 -0.160905,0 -0.538011,-0.51468 -0.837989,-1.14374 z m 126.992264,0.17532 c -0.39549,-0.5554 -0.64959,-1.1879 -0.56467,-1.40556 0.13063,-0.33487 18.99751,-11.35995 23.792,-13.90312 l 1.56477,-0.83003 0.63469,0.76926 c 0.34908,0.4231 0.63469,1.02318 0.63469,1.33352 0,0.39934 -3.56483,2.62735 -12.19692,7.623 -6.70831,3.8823 -12.41036,7.14064 -12.67124,7.24073 -0.29088,0.11163 -0.75232,-0.20845 -1.19332,-0.8278 z m -66.72216,-3.51361 c -1.48174,-0.85292 -2.68634,-1.76535 -2.68664,-2.03497 -2.9e-4,-0.26883 0.32869,-0.89598 0.73101,-1.39367 l 0.73157,-0.90489 2.54245,1.49312 c 1.39835,0.82121 2.61869,1.69173 2.71185,1.93449 0.1813,0.47247 -0.71462,2.45636 -1.10809,2.45371 -0.12981,-9.8e-4 -1.44478,-0.69739 -2.92215,-1.54779 z m -32.48836,0.38958 c -0.30053,-0.45867 -0.50028,-1.07362 -0.44387,-1.36656 0.0564,-0.29293 1.27521,-1.23944 2.70843,-2.10334 l 2.60589,-1.57074 0.73153,0.90073 c 1.18368,1.45744 0.96207,1.89224 -1.78373,3.49957 -1.38519,0.81086 -2.68804,1.47429 -2.89518,1.47429 -0.20718,0 -0.62254,-0.37528 -0.92307,-0.83395 z M 135.74,106.24624 c -6.37096,-1.58456 -10.64539,-8.24915 -10.66462,-16.628 -0.0182,-8.02157 3.59471,-13.76366 10.06111,-15.98949 7.19125,-2.47532 14.54415,0.24877 17.49225,6.48051 1.0042,2.12273 0.82935,2.44614 -1.59253,2.94564 -1.79325,0.36984 -1.76793,0.38681 -3.18772,-2.13619 -1.83197,-3.25541 -5.21233,-4.72828 -9.298,-4.05126 -6.39247,1.05927 -9.28344,5.69767 -8.83484,14.17503 0.38786,7.32904 3.64313,11.19595 9.73275,11.56134 4.64913,0.27896 8.0959,-1.79638 9.62489,-5.79526 l 0.68523,-1.79218 1.46587,0.0495 c 2.11252,0.0713 2.95543,0.59895 2.69657,1.68802 -0.80169,3.37296 -3.88019,7.10095 -7.18219,8.69751 -1.78188,0.86155 -2.30158,0.95212 -5.8653,1.02221 -2.15061,0.0423 -4.46069,-0.06 -5.13347,-0.22735 z M 0.09267395,105.8509 C 0.00684505,105.62687 -0.02521859,98.25859 0.02144313,89.47693 L 0.10626189,73.51028 2.0311231,73.41108 c 1.3193669,-0.068 2.0096802,0.0345 2.1945023,0.32585 0.1482943,0.2338 0.2718567,3.25025 0.2746264,6.70321 l 0.00489,6.27812 8.3906382,-0.087 8.390636,-0.087 0.08821,-6.59846 0.08821,-6.59846 2.114278,0 2.11431,0 -0.08449,16.37396 -0.08446,16.37396 -1.9551,0 -1.955101,0 -0.162925,-7.49455 -0.162925,-7.49455 -8.390636,-0.087 -8.3906382,-0.087 0,7.27195 c 0,5.2215 -0.1102676,7.38221 -0.39102,7.66298 -0.5282029,0.52818 -3.81804997,0.51485 -4.02154331,-0.0163 z M 254.01192,106.05519 c -0.12728,-0.1273 -0.23145,-7.53863 -0.23145,-16.46964 l 0,-16.23819 2.11128,0 2.11128,0 0.0882,6.59846 0.0882,6.59846 8.39063,0.087 8.39064,0.087 0.005,-6.27812 c 0.003,-3.45296 0.12633,-6.46941 0.27463,-6.70321 0.18479,-0.29138 0.87513,-0.39388 2.1945,-0.32585 l 1.92486,0.0992 0,16.2925 0,16.2925 -1.73717,0.0994 c -1.00069,0.0573 -1.93314,-0.0632 -2.19949,-0.28428 -0.37401,-0.31041 -0.46232,-1.77758 -0.46232,-7.68093 l 0,-7.29722 -8.39063,0.087 -8.39064,0.087 -0.16293,7.49455 -0.16292,7.49455 -1.80511,0.0957 c -0.9928,0.0526 -1.90926,-0.008 -2.03657,-0.13577 z M 138.26019,67.74532 c -0.0899,-0.2344 -0.1252,-7.09797 -0.0785,-15.25237 l 0.0849,-14.82617 1.46632,0 1.46633,0 0,15.15202 0,15.15203 -1.38786,0.10034 c -0.91948,0.0665 -1.44299,-0.0435 -1.55127,-0.32585 z M 127.2563,32.73894 c -0.12731,-0.1273 -0.23146,-7.54564 -0.23146,-16.4852 l 0,-16.25374 2.03657,0.097 2.03656,0.097 0.16292,6.517 0.16293,6.517 8.38386,0.087 8.38386,0.087 0.0882,-6.60395 0.0882,-6.60395 2.11803,0 2.11802,0 0,16.2925 0,16.2925 -1.73717,0.0994 c -1.00072,0.0573 -1.93317,-0.0633 -2.19949,-0.28428 -0.37401,-0.3104 -0.46231,-1.77757 -0.46231,-7.68092 l 0,-7.29723 -8.39064,0.087 -8.39064,0.087 -0.16293,7.49455 -0.16292,7.49455 -1.80511,0.0957 c -0.99283,0.0526 -1.90929,-0.008 -2.03656,-0.13577 z"
     id="path3091"
     inkscape:connector-curvature="0" />
</svg>
