<?xml version="1.0" encoding="UTF-8" standalone="no"?>
<!-- Created with Inkscape (http://www.inkscape.org/) -->

<svg
   xmlns:dc="http://purl.org/dc/elements/1.1/"
   xmlns:cc="http://creativecommons.org/ns#"
   xmlns:rdf="http://www.w3.org/1999/02/22-rdf-syntax-ns#"
   xmlns:svg="http://www.w3.org/2000/svg"
   xmlns="http://www.w3.org/2000/svg"
   xmlns:sodipodi="http://sodipodi.sourceforge.net/DTD/sodipodi-0.dtd"
   xmlns:inkscape="http://www.inkscape.org/namespaces/inkscape"
   id="svg3050"
   version="1.1"
   inkscape:version="0.48.4 r9939"
   width="1196.5023"
   height="1196.248"
   sodipodi:docname="LinkedIn_IN_Icon_5inCMYK1.jpg">
  <metadata
     id="metadata3056">
    <rdf:RDF>
      <cc:Work
         rdf:about="">
        <dc:format>image/svg+xml</dc:format>
        <dc:type
           rdf:resource="http://purl.org/dc/dcmitype/StillImage" />
        <dc:title></dc:title>
      </cc:Work>
    </rdf:RDF>
  </metadata>
  <defs
     id="defs3054" />
  <sodipodi:namedview
     pagecolor="#ffffff"
     bordercolor="#666666"
     borderopacity="1"
     objecttolerance="10"
     gridtolerance="10"
     guidetolerance="10"
     inkscape:pageopacity="0"
     inkscape:pageshadow="2"
     inkscape:window-width="1855"
     inkscape:window-height="1056"
     id="namedview3052"
     showgrid="false"
     fit-margin-top="0"
     fit-margin-left="0"
     fit-margin-right="0"
     fit-margin-bottom="0"
     inkscape:zoom="0.19715957"
     inkscape:cx="628.43221"
     inkscape:cy="618.5362"
     inkscape:window-x="65"
     inkscape:window-y="24"
     inkscape:window-maximized="1"
     inkscape:current-layer="svg3050" />
  <path
     style="fill:#007db0"
     d="M 69.4741,1194.5634 C 36.9244,1187.6811 11.3575,1164.1871 2.2604,1132.7993 L 0,1125.0001 0,597.99999 0,71 2.2566,63.214544 C 10.8353,33.61841 34.8375,10.18535 64.7518,2.2014 L 73,0 598.5,0 1124,0 l 8.7966,2.75912 c 16.7397,5.25055 28.1999,12.2904 39.8181,24.45978 12.2374,12.81792 20.1323,28.4784 22.8275,45.2811 0.7138,4.44973 1.0451,170.25015 1.0502,525.63952 0.01,567.74118 0.4308,526.22028 -5.5153,542.01758 -9.5236,25.3018 -32.4562,45.7104 -60.2834,53.6483 l -7.6937,2.1947 -522.5,0.183 c -500.0123,0.1751 -522.867,0.1054 -531.0259,-1.6197 z M 354.273,735.5 c 0.1502,-155.375 0.029,-283.5125 -0.269,-284.75 l -0.5421,-2.25 -87.874,0 c -79.207,0 -87.9338,0.156 -88.4809,1.58179 -0.795,2.07162 -0.7929,564.77021 0,566.84181 0.5509,1.4357 9.0235,1.5628 88.75,1.3318 L 353.998,1018 354.271,735.49999 z m 288.2667,125 c 0.4974,-145.17791 0.6817,-158.47794 2.3551,-170 8.1949,-56.42563 29.9883,-86.03616 71.1052,-96.60998 12.3819,-3.1842 37.2757,-4.38399 50.5845,-2.43798 41.2426,6.03044 64.1244,33.44555 71.4456,85.60001 2.9233,20.82506 3.4428,50.16504 3.4563,195.20338 l 0.014,146.25547 88.25,-0.2555 88.25,-0.2554 0.3041,-164.5 c 0.3078,-166.52211 -0.099,-193.25965 -3.3976,-223.5 -7.3716,-67.57317 -25.1944,-112.4951 -57.3401,-144.52459 -22.4312,-22.35008 -45.659,-34.80523 -82.0441,-43.99341 -17.1394,-4.32816 -33.2981,-6.14122 -59.7364,-6.7026 -26.526,-0.56325 -36.1534,0.11977 -54.7859,3.88681 -50.3247,10.17441 -96.8637,42.02116 -119.9525,82.08379 -5.3651,9.30913 -5.4978,8.54066 -5.7856,-33.5 l -0.2619,-38.25 -84.5,0 -84.5,0 -0.2561,283.5 c -0.1408,155.925 -0.042,284.065 0.2207,284.7555 0.3786,0.9968 18.5606,1.2028 88.2561,1 L 642.0004,1018 642.5401,860.5 z M 280.5617,369.04682 c 18.0117,-2.71519 35.7256,-10.59571 50.2415,-22.35126 8.6486,-7.00401 13.5549,-12.53285 20.6639,-23.28567 21.3005,-32.21843 22.3317,-74.42359 2.6371,-107.93024 -13.6096,-23.15427 -36.7827,-40.63721 -63.1277,-47.6268 -8.639,-2.292 -11.9876,-2.65043 -24.9765,-2.67345 -16.6269,-0.0295 -24.1975,1.25086 -37.3202,6.3115 -12.7476,4.916 -24.4984,12.53048 -34.7364,22.5091 -14.0708,13.71437 -23.0616,29.14538 -28.1892,48.38112 -2.2281,8.35847 -2.564,11.64992 -2.564,25.11888 0,13.58499 0.3265,16.72667 2.6426,25.42862 5.3132,19.96229 17.1069,38.88794 32.5046,52.16068 10.1554,8.75394 19.9677,14.4484 32.8062,19.03871 16.7704,5.99613 32.13,7.52493 49.4181,4.91881 z"
     id="path3078"
     inkscape:connector-curvature="0" />
</svg>
