<?xml version="1.0" encoding="UTF-8" standalone="no"?>
<!-- Created with Inkscape (http://www.inkscape.org/) -->

<svg
   xmlns:dc="http://purl.org/dc/elements/1.1/"
   xmlns:cc="http://creativecommons.org/ns#"
   xmlns:rdf="http://www.w3.org/1999/02/22-rdf-syntax-ns#"
   xmlns:svg="http://www.w3.org/2000/svg"
   xmlns="http://www.w3.org/2000/svg"
   xmlns:sodipodi="http://sodipodi.sourceforge.net/DTD/sodipodi-0.dtd"
   xmlns:inkscape="http://www.inkscape.org/namespaces/inkscape"
   id="svg3050"
   version="1.1"
   inkscape:version="0.48.4 r9939"
   width="359.61542"
   height="359.5401"
   sodipodi:docname="linkedin.svg">
  <metadata
     id="metadata3056">
    <rdf:RDF>
      <cc:Work
         rdf:about="">
        <dc:format>image/svg+xml</dc:format>
        <dc:type
           rdf:resource="http://purl.org/dc/dcmitype/StillImage" />
        <dc:title />
      </cc:Work>
    </rdf:RDF>
  </metadata>
  <defs
     id="defs3054" />
  <sodipodi:namedview
     pagecolor="#ffffff"
     bordercolor="#666666"
     borderopacity="1"
     objecttolerance="10"
     gridtolerance="10"
     guidetolerance="10"
     inkscape:pageopacity="0"
     inkscape:pageshadow="2"
     inkscape:window-width="1855"
     inkscape:window-height="1056"
     id="namedview3052"
     showgrid="false"
     fit-margin-top="0"
     fit-margin-left="0"
     fit-margin-right="0"
     fit-margin-bottom="0"
     inkscape:zoom="0.78863828"
     inkscape:cx="675.85031"
     inkscape:cy="54.315872"
     inkscape:window-x="65"
     inkscape:window-y="24"
     inkscape:window-maximized="1"
     inkscape:current-layer="svg3050" />
  <path
     style="fill:#007db0"
     d="m 20.88088,359.03358 c -9.78301,-2.0685 -17.46731,-9.1298 -20.2015,-18.5636 L 0,338.12588 0,179.73268 0,21.3395 0.67824,18.99953 C 3.25662,10.10422 10.47063,3.06127 19.46157,0.66164 L 21.94062,0 l 157.94231,0 157.9424,0 2.6438,0.82927 c 5.0313,1.57808 8.4757,3.69396 11.9676,7.35154 3.6781,3.85251 6.0509,8.55936 6.8609,13.60952 0.2146,1.3374 0.3142,51.16975 0.3157,157.98425 0,170.6382 0.1295,158.1589 -1.6576,162.9068 -2.8624,7.6046 -9.7549,13.7385 -18.1186,16.1244 l -2.3124,0.6596 -157.0407,0.055 c -150.28181,0.053 -157.15094,0.032 -159.60315,-0.4868 z m 85.5981,-137.9744 c 0.0452,-46.699 0.009,-85.21149 -0.0809,-85.58343 l -0.16293,-0.67625 -26.41108,0 c -23.80616,0 -26.42906,0.0469 -26.59349,0.47542 -0.23894,0.62264 -0.23831,169.74526 0,170.36786 0.16557,0.4316 2.71207,0.4697 26.67437,0.4003 l 26.49133,-0.077 0.0821,-84.9072 z m 86.64035,37.5695 c 0.1495,-43.6341 0.2049,-47.6315 0.7079,-51.0946 2.463,-16.959 9.0131,-25.8587 21.3711,-29.0367 3.7214,-0.957 11.2034,-1.3176 15.2035,-0.7327 12.3957,1.8124 19.2729,10.0522 21.4734,25.7276 0.8786,6.2591 1.0348,15.0774 1.0388,58.6696 l 0.01,43.958 26.524,-0.077 26.5241,-0.077 0.091,-49.4416 c 0.092,-50.0492 -0.03,-58.0854 -1.0212,-67.1743 -2.2155,-20.3096 -7.5723,-33.81112 -17.2339,-43.43779 -6.7418,-6.71745 -13.7231,-10.46093 -24.6588,-13.22249 -5.1514,-1.30086 -10.008,-1.84578 -17.9542,-2.01451 -7.9726,-0.16929 -10.8661,0.036 -16.4663,1.16821 -15.1254,3.05798 -29.1129,12.62972 -36.0524,24.67079 -1.6125,2.79792 -1.6524,2.56695 -1.7389,-10.06863 l -0.079,-11.49628 -25.397,0 -25.39706,0 -0.077,85.2077 c -0.0423,46.8643 -0.0127,85.3775 0.0663,85.585 0.11379,0.2997 5.57851,0.3616 26.52586,0.3007 l 26.3826,-0.077 0.1623,-47.3377 z M 84.32459,110.91934 c 5.41353,-0.81606 10.73755,-3.1846 15.1004,-6.71781 2.59939,-2.10509 4.07401,-3.76682 6.21066,-6.99865 6.402,-9.68346 6.71194,-22.36848 0.7926,-32.43912 -4.09045,-6.95915 -11.05527,-12.21377 -18.97343,-14.31453 -2.5965,-0.68887 -3.60294,-0.7966 -7.50684,-0.80352 -4.99732,-0.009 -7.27271,0.37595 -11.21682,1.89696 -3.83137,1.47754 -7.36315,3.76612 -10.44025,6.76525 -4.22907,4.12194 -6.9313,8.75983 -8.47243,14.54125 -0.66967,2.51219 -0.77063,3.50146 -0.77063,7.54964 0,4.08305 0.0981,5.02731 0.79425,7.64273 1.59691,5.99979 5.14158,11.68802 9.76946,15.67722 3.05227,2.63105 6.00142,4.34256 9.86011,5.72221 5.04045,1.80217 9.65687,2.26166 14.85292,1.47837 z"
     id="path3078"
     inkscape:connector-curvature="0" />
</svg>
