<?xml version="1.0" encoding="UTF-8" standalone="no"?>
<!-- Created with Inkscape (http://www.inkscape.org/) -->

<svg
   xmlns:dc="http://purl.org/dc/elements/1.1/"
   xmlns:cc="http://creativecommons.org/ns#"
   xmlns:rdf="http://www.w3.org/1999/02/22-rdf-syntax-ns#"
   xmlns:svg="http://www.w3.org/2000/svg"
   xmlns="http://www.w3.org/2000/svg"
   xmlns:sodipodi="http://sodipodi.sourceforge.net/DTD/sodipodi-0.dtd"
   xmlns:inkscape="http://www.inkscape.org/namespaces/inkscape"
   id="svg3039"
   version="1.1"
   inkscape:version="0.48.4 r9939"
   width="47.070648"
   height="42.551731"
   sodipodi:docname="aoeuaoeu.jpg">
  <metadata
     id="metadata3045">
    <rdf:RDF>
      <cc:Work
         rdf:about="">
        <dc:format>image/svg+xml</dc:format>
        <dc:type
           rdf:resource="http://purl.org/dc/dcmitype/StillImage" />
        <dc:title></dc:title>
      </cc:Work>
    </rdf:RDF>
  </metadata>
  <defs
     id="defs3043" />
  <sodipodi:namedview
     pagecolor="#ffffff"
     bordercolor="#666666"
     borderopacity="1"
     objecttolerance="10"
     gridtolerance="10"
     guidetolerance="10"
     inkscape:pageopacity="0"
     inkscape:pageshadow="2"
     inkscape:window-width="1855"
     inkscape:window-height="1056"
     id="namedview3041"
     showgrid="false"
     fit-margin-top="0"
     fit-margin-left="0"
     fit-margin-right="0"
     fit-margin-bottom="0"
     inkscape:zoom="3.1051211"
     inkscape:cx="41.612771"
     inkscape:cy="2.7173971"
     inkscape:window-x="1985"
     inkscape:window-y="24"
     inkscape:window-maximized="1"
     inkscape:current-layer="svg3039" />
  <path
     style="fill:#ff0000;fill-opacity:1;stroke:none"
     d="m 21.280618,17.014747 c 0.16103,0.04026 12.49905,0.01967 17.31011,0 1.18801,0.946475 0.59596,1.819407 -0.0805,2.173835 -4.8631,0.1934 -11.92813,-0.007 -17.06857,0 -1.11484,-0.718046 -0.32206,-2.21409 -0.16103,-2.173835 z"
     id="path3823"
     inkscape:connector-curvature="0"
     sodipodi:nodetypes="cccccc" />
  <path
     style="fill:#ff0000;fill-opacity:1;stroke:none"
     d="m 21.280618,21.959053 c 0.16103,0.0403 12.49905,0.0197 17.31011,0 1.18801,0.946479 0.59596,1.819409 -0.0805,2.173837 -4.8631,0.1934 -11.92813,-0.007 -17.06857,0 -1.11484,-0.718048 -0.32206,-2.214087 -0.16103,-2.173837 z"
     id="path3823-9"
     inkscape:connector-curvature="0"
     sodipodi:nodetypes="cccccc" />
  <path
     style="fill:#ff0000;fill-opacity:1;stroke:none"
     d="m 21.280618,26.90338 c 0.16103,0.0403 12.49905,0.0197 17.31011,0 1.18801,0.94647 0.59596,1.81941 -0.0805,2.17383 -4.8631,0.1934 -11.92813,-0.007 -17.06857,0 -1.11484,-0.71804 -0.32206,-2.21409 -0.16103,-2.17383 z"
     id="path3823-91"
     inkscape:connector-curvature="0"
     sodipodi:nodetypes="cccccc" />
  <path
     style="fill:#ff0000;fill-opacity:1;stroke:none"
     d="m 34.727438,0.06656584 c 3.95764,4.43040696 6.62828,5.96015996 12.06931,12.29703016 0.26489,7.09501 0.14191,19.649064 0.2739,30.167554 -3.06525,-0.10012 -16.55958,0.5714 -16.91147,-1.67221 -0.12704,-2.13382 10.52016,-1.29505 12.96874,-1.83796 0.18211,-3.7224 -0.52516,-16.210336 -0.20246,-24.607879 -2.902,-0.05081 -9.17101,-0.252229 -11.10553,-0.227723 -0.002,-1.907786 -0.28517,-8.4958622 -0.28061,-10.7029702 -2.08876,-0.113791 -14.493165,-0.110132 -16.396038,0 -0.131604,3.169594 0.270613,13.8912602 -1.333579,13.7904492 -2.47104,0.211668 -1.513503,-12.8665322 -1.882168,-17.12814916 9.880065,-0.07145 16.017975,-0.236709 22.799905,-0.07814 z"
     inkscape:connector-curvature="0"
     sodipodi:nodetypes="cccccccccccc" />
  <path
     style="fill:#ff0000;fill-opacity:1;stroke:none"
     d="m 1.7602536,23.20138 c 1.174406,-0.946443 4.29078,-4.272614 5.635851,-5.555339 -0.90927,-2.490408 -5.559536,-1.826738 -6.279948,-0.644097 -1.44502205,1.665715 -1.73799105,5.455123 0.644097,6.199436 z"
     id="path3843"
     inkscape:connector-curvature="0"
     sodipodi:nodetypes="cccc" />
  <path
     style="fill:#ff0000;fill-opacity:1;stroke:none"
     d="M 3.1289606,24.73111 C 6.6147526,27.67937 13.137758,35.12845 14.6422,36.5664 c 1.42393,-1.78254 4.424518,-4.17938 5.877388,-6.03841 -2.3312,-1.61749 -7.967789,-8.542571 -11.3522154,-11.674267 -2.41828,2.423643 -4.612963,4.619881 -6.038412,5.877387 z"
     id="path3845"
     inkscape:connector-curvature="0"
     sodipodi:nodetypes="ccccc" />
  <path
     style="fill:#ff0000;fill-opacity:1;stroke:none"
     d="m 26.719028,41.71917 c 0.74096,-1.35859 -3.77419,-7.65891 -4.75022,-9.74196 -1.86167,1.78154 -4.45627,4.51312 -6.038414,5.79687 3.329104,1.6058 9.645104,4.90113 10.788634,3.94509 z"
     id="path3847"
     inkscape:connector-curvature="0"
     sodipodi:nodetypes="cccc" />
</svg>
