<?xml version="1.0" encoding="UTF-8" standalone="no"?>
<!-- Created with Inkscape (http://www.inkscape.org/) -->

<svg
   xmlns:dc="http://purl.org/dc/elements/1.1/"
   xmlns:cc="http://creativecommons.org/ns#"
   xmlns:rdf="http://www.w3.org/1999/02/22-rdf-syntax-ns#"
   xmlns:svg="http://www.w3.org/2000/svg"
   xmlns="http://www.w3.org/2000/svg"
   xmlns:sodipodi="http://sodipodi.sourceforge.net/DTD/sodipodi-0.dtd"
   xmlns:inkscape="http://www.inkscape.org/namespaces/inkscape"
   width="419.50485"
   height="415.5625"
   id="svg2"
   version="1.1"
   inkscape:version="0.48.4 r9939"
   sodipodi:docname="New document 1">
  <defs
     id="defs4" />
  <sodipodi:namedview
     id="base"
     pagecolor="#ffffff"
     bordercolor="#666666"
     borderopacity="1.0"
     inkscape:pageopacity="0.0"
     inkscape:pageshadow="2"
     inkscape:zoom="0.35"
     inkscape:cx="-155.24532"
     inkscape:cy="179.20557"
     inkscape:document-units="px"
     inkscape:current-layer="layer1"
     showgrid="false"
     fit-margin-top="0"
     fit-margin-left="0"
     fit-margin-right="0"
     fit-margin-bottom="0"
     inkscape:window-width="1855"
     inkscape:window-height="1056"
     inkscape:window-x="65"
     inkscape:window-y="24"
     inkscape:window-maximized="1" />
  <metadata
     id="metadata7">
    <rdf:RDF>
      <cc:Work
         rdf:about="">
        <dc:format>image/svg+xml</dc:format>
        <dc:type
           rdf:resource="http://purl.org/dc/dcmitype/StillImage" />
        <dc:title></dc:title>
      </cc:Work>
    </rdf:RDF>
  </metadata>
  <g
     inkscape:label="Layer 1"
     inkscape:groupmode="layer"
     id="layer1"
     transform="translate(-30.245319,-296.00525)">
    <g
       id="g2987"
       style="stroke:#000000"
       transform="translate(-79.10176,258.56775)">
      <g
         id="g2989"
         style="fill:none;stroke-width:6;stroke-dasharray:6, 12">
        <path
           d="m 126.36,168.35 c -3.6102,66.581 63.187,90.865 120.9,90.865"
           id="path4660"
           inkscape:connector-curvature="0"
           style="stroke-dashoffset:60" />
        <path
           d="m 356.57,257.43 c 45.91,-48.356 112.63,-10.116 152.27,31.831"
           id="path4660-8"
           inkscape:connector-curvature="0" />
      </g>
      <g
         id="g2993"
         style="fill:#117a88">
        <path
           d="m 235.41,200.32 c 48.175,1.3084 98.194,0.40454 132.75,18.054 -4.259,48.498 -16.548,96.997 -57.348,145.5 -31.506,5.134 -63.012,7.466 -94.519,-18.054 19.981,-48.498 30.187,-96.997 19.116,-145.5 v -3e-5 z"
           id="rect3848"
           inkscape:connector-curvature="0"
           style="stroke-width:2" />
        <path
           d="m 223.08,179.9 c -4.8311,-42.555 13.274,-97.858 68.305,-117.66 78.218,-28.146 113.41,85.297 113.41,85.297 0,0 -53.786,1.1919 -80.238,5.5614 -34.518,5.7019 -101.48,26.802 -101.48,26.802 z"
           id="path3850"
           inkscape:connector-curvature="0"
           style="stroke-width:4.17299986" />
      </g>
      <g
         id="g2997"
         style="stroke-width:2">
        <path
           d="m 375.68,83.114 c 0,24.677 -20.005,44.682 -44.682,44.682 -24.677,0 -44.682,-20.005 -44.682,-44.682 0,-24.677 20.005,-44.682 44.682,-44.682 24.677,0 44.682,20.005 44.682,44.682 z"
           id="path3866"
           inkscape:connector-curvature="0"
           style="fill:#ffffff" />
        <path
           d="m 365.91,89.121 c 0,6.4285 -5.2113,11.64 -11.64,11.64 -6.4285,0 -11.64,-5.2113 -11.64,-11.64 0,-6.4285 5.2113,-11.64 11.64,-11.64 6.4285,0 11.64,5.2113 11.64,11.64 z"
           id="path3868"
           inkscape:connector-curvature="0" />
        <path
           d="m 259.62,212.14 c 5.9041,42.722 -3.5658,85.963 -18.938,125.69 20.67,13.042 46.969,14.846 70.5,9.4375 28.477,-34.855 45.557,-78.637 49.188,-123.38 -32.042,-12.043 -66.992,-11.055 -100.81,-12.25 l 0.0625,0.5 z"
           id="path4415"
           inkscape:connector-curvature="0"
           style="fill:#06a2b6" />
        <path
           d="m 294.78,240.11 c -0.56723,26.892 -5.8246,53.422 -13.375,79.156 6.4839,0.59222 14.244,1.7652 20.12,-0.68298 16.26,-22.609 27.876,-48.866 32.911,-76.317 -13.059,-2.3909 -26.316,-3.5686 -39.625,-3.6875 l -0.0204,0.9998 -0.0109,0.5315 h 6e-5 z"
           id="path4450"
           inkscape:connector-curvature="0"
           style="fill:#00e3ff" />
        <g
           id="g3003"
           style="fill:#117a88">
          <path
             d="m 196.48,407.12 c -7.6556,7.2701 -26.631,-0.28308 -42.383,-16.87 -15.752,-16.58692 -22.315,-35.927 -14.659,-43.197 7.6556,-7.27 12.769,13.447 28.521,30.034 15.752,16.587 36.177,22.764 28.521,30.034 v -6e-5 z"
             id="path4652"
             inkscape:connector-curvature="0" />
          <path
             d="m 330.99,433.96 c 0,9.971 -20.208,18.054 -45.135,18.054 -24.928,0 -45.135,-12.331 -45.135,-22.302 0,-9.971 20.208,3.186 45.135,3.186 24.928,0 45.135,-8.909 45.135,1.062 z"
             id="path4654"
             inkscape:connector-curvature="0" />
        </g>
        <g
           id="g3007"
           style="fill:#ff003c">
          <path
             d="m 321.86,259.69 a 10.513,10.513 0 1 1 -21.026,0"
             id="path4658"
             inkscape:connector-curvature="0" />
          <path
             d="m 506.58,316.06 c -7.1356,-3.8066 -9.8342,-12.677 -6.0276,-19.813 3.8066,-7.1356 12.677,-9.8342 19.813,-6.0276 8.8835,5.4366 9.9246,16.426 3.0253,23.694 l -9.9178,-10.774 -6.8925,12.92 z"
             id="path4690"
             inkscape:connector-curvature="0" />
          <path
             d="m 129.45,140.87 c 7.6542,2.6115 11.742,10.934 9.1306,18.588 -2.6115,7.6542 -10.934,11.742 -18.588,9.1305 -9.6412,-3.9396 -12.433,-14.619 -6.7904,-22.901 l 11.519,9.0415 4.7286,-13.859 z"
             id="path4690-2"
             inkscape:connector-curvature="0" />
        </g>
      </g>
      <g
         id="g3012"
         style="fill-opacity:0.32000002;stroke-width:0.2">
        <path
           d="m 247.78,92.531 c -21.023,25.357 -27.921,59.17 -24.719,87.375 0,0 15.518,-4.8621 35.312,-10.531 0,0 -9.4769,-22.812 -11.281,-34.906 -2.063,-13.828 0.6875,-41.938 0.6875,-41.938 z"
           id="path4754"
           inkscape:connector-curvature="0" />
        <path
           d="m 235.41,200.31 c 11.071,48.498 0.85599,97.002 -19.125,145.5 1.709,1.3843 3.416,2.6818 5.125,3.9062 0,0 9.4834,-14.45 12.407,-22.5 10.094,-27.793 16.119,-57.529 16.469,-87.062 0.15871,-13.396 -6.5322,-39.656 -6.5322,-39.656 -2.781,-0.0646 -5.5717,-0.11221 -8.3438,-0.1875 z"
           id="path4761"
           inkscape:connector-curvature="0" />
        <path
           d="m 111.38,149.19 c -3.0562,9.208 2.2708,18.822 12,20.094 -7.7915,-6.6979 -10.526,-13.396 -12,-20.094 z"
           id="path4768"
           inkscape:connector-curvature="0" />
        <path
           d="m 507.53,289.78 c -10.722,2.9708 -13.543,16.372 -3.3762,24.67 -1.1765,-5.6672 -1.06,-16.964 3.3762,-24.67 z"
           id="path4775"
           inkscape:connector-curvature="0" />
        <path
           d="m 142.22,345.56 c -0.90326,0.0969 -1.8243,0.59125 -2.7812,1.5 -4.957,4.7073 -3.9438,14.477 1.6562,25.281 -0.14743,-13.831 1.8001,-20.853 4.4688,-25.531 -1.1234,-0.90793 -2.2263,-1.3699 -3.3438,-1.25 z"
           id="path4782"
           inkscape:connector-curvature="0" />
        <path
           d="m 245.16,425.97 c -2.8524,-0.0473 -4.4375,0.94565 -4.4375,3.75 0,5.3906 5.9159,11.457 15.281,15.906 0.71454,-6.498 2.1735,-12.438 7.0938,-15.781 -7.7258,-1.826 -14.031,-3.8102 -17.938,-3.875 z"
           id="path4786"
           inkscape:connector-curvature="0" />
      </g>
      <g
         id="g5866">
        <path
           d="m 334.18,156.49 c -0.13828,-12.548 4.3411,-24.785 8.6048,-25.731 4.2638,-0.94638 6.6974,9.7559 6.8357,22.304 0.002,0.13019 0.003,0.26059 0.004,0.39099 0,0 -4.9346,-2.7358 -7.4414,-2.2909 -2.7113,0.48123 -8.0024,5.3269 -8.0024,5.3269 h -3.4e-4 z"
           id="path4799"
           inkscape:connector-curvature="0"
           style="fill:#a59e9e;stroke-width:0.764;stroke-dashoffset:4.728" />
        <g
           id="g3022"
           style="fill:none;stroke-width:0.5">
          <path
             d="m 336.07,141.3 3.34,10.875"
             id="path5854"
             inkscape:connector-curvature="0" />
          <path
             d="m 343.35,130.94 -0.3962,20.108"
             id="path5858"
             inkscape:connector-curvature="0" />
          <path
             d="m 348.7,140.45 -3.1705,11.167"
             id="path5862"
             inkscape:connector-curvature="0" />
        </g>
      </g>
    </g>
  </g>
</svg>
